<?xml version="1.0" encoding="utf-8"?>
<!-- Svg Vector Icons : http://www.onlinewebfonts.com/icon -->
<!DOCTYPE svg PUBLIC "-//W3C//DTD SVG 1.1//EN" "http://www.w3.org/Graphics/SVG/1.1/DTD/svg11.dtd">
<svg version="1.1" xmlns="http://www.w3.org/2000/svg" xmlns:xlink="http://www.w3.org/1999/xlink" x="0px" y="0px" viewBox="0 0 256 256" enable-background="new 0 0 256 256" xml:space="preserve">
<metadata> Svg Vector Icons : http://www.onlinewebfonts.com/icon </metadata>
<g><g><g><path fill="#000000" d="M70.2,11C35.3,17.3,10,47.7,10,83.1c0,8.5,0.6,13.1,3,21.1c3.1,11,8.9,20.9,17.2,29.6c11.2,11.7,24.1,18.6,40,21.7c7.2,1.4,20,1.4,26.5,0c2.6-0.6,4.9-1,4.9-0.8c0.1,0.1-0.1,1.4-0.5,3c-1.3,5.8-1.9,15.4-1.2,22c3,31.1,24.5,56.3,55.1,64.6c5.7,1.5,7.3,1.7,18.1,1.7c10.8,0,12.5-0.2,18.2-1.7c11.8-3.1,23.4-9.6,32.3-18c9.2-8.5,17.2-22.1,20.6-34.9c1.5-5.8,1.7-7.5,1.7-18.2c0-10.9-0.1-12.4-1.7-18.1c-5.9-21.8-20.5-39.3-40.5-48.7c-13.7-6.4-32-8.5-46.4-5.1c-1.4,0.3-2.6,0.5-2.8,0.3c-0.1-0.1,0.1-1.3,0.5-2.8c1.4-5.1,2-15.4,1.3-22.2c-1.8-18.4-9.3-33.7-22.5-46.4C123,19.8,109.5,13.1,94.6,10.6C89,9.7,76.2,9.9,70.2,11z M90.2,15.1c30.1,3.5,53.6,24.5,60.3,54.1c1.3,5.8,1.5,21,0.3,26.5c-1.7,7.8-1.5,7.5-7.7,10.3c-16.3,7.3-29.7,20.7-37.1,37.1c-2.8,6.2-2.6,6-10.3,7.6c-5.2,1.2-19.5,1.1-25.1,0c-14-2.8-26.2-9.4-36.2-19.5c-17.2-17.5-23.6-41.7-17.3-65.8C18.7,59,24.4,47.5,28.6,42c9-11.8,21.9-20.6,36.4-24.7C74,14.8,81.6,14.1,90.2,15.1z M183.4,105.4c14.8,2.2,27.6,8.9,38.4,19.7c20.5,20.6,25.6,51.7,12.7,78c-4,8.2-8.2,13.9-14.4,19.8c-22.2,20.9-55.4,24.7-81.5,9.5c-11.1-6.5-21.5-17.6-27.3-29.3c-0.8-1.8-2.4-6-3.5-9.3c-5.4-17-4-34.9,4-51.1C125.2,115.6,153.8,100.8,183.4,105.4z"/><path fill="#000000" d="M61.8,61.9L51.1,72.6V94v21.3h21.7h21.6l10.5-10.5l10.4-10.4V72.7V51.1H94H72.6L61.8,61.9z M99.3,63.6L91.9,71H75.8H59.8l7.4-7.4l7.4-7.4h16.1h16.1L99.3,63.6z M103.3,99.4c-3.8,3.8-7.1,6.9-7.4,6.9c-0.3,0-0.5-7.1-0.5-15.9V74.6l7.3-7.3l7.2-7.3l0.2,16.3l0.1,16.2L103.3,99.4z M90.9,93.2v17H73.6H56.2v-17v-17h17.3h17.3V93.2z"/><path fill="#000000" d="M146.8,147.1l-1.5,1.7l12.3,12.3l12.3,12.3l-11.9,11.9l-11.9,11.8l1.7,1.8l1.7,1.9l11.9-11.9l11.9-11.9l11.4,11.4c9.5,9.6,11.6,11.3,12.5,10.7c3.1-2,3-2.2-9-14.3L177,173.4l11.9-11.9l11.9-11.8l-1.7-1.8l-1.7-1.9L185.4,158l-11.9,11.9l-12.2-12.2c-6.7-6.7-12.3-12.2-12.6-12.2C148.5,145.5,147.7,146.2,146.8,147.1z"/></g></g></g>
</svg>