<?xml version="1.0" encoding="utf-8"?>
<!-- Svg Vector Icons : http://www.onlinewebfonts.com/icon -->
<!DOCTYPE svg PUBLIC "-//W3C//DTD SVG 1.1//EN" "http://www.w3.org/Graphics/SVG/1.1/DTD/svg11.dtd">
<svg version="1.1" xmlns="http://www.w3.org/2000/svg" xmlns:xlink="http://www.w3.org/1999/xlink" x="0px" y="0px" viewBox="0 0 256 256" enable-background="new 0 0 256 256" xml:space="preserve">
<metadata> Svg Vector Icons : http://www.onlinewebfonts.com/icon </metadata>
<g><g><g><path fill="#000000" d="M124.2,13.9c-7.6,1.4-15.2,4.6-21.9,9.1c-4.7,3.1-12.2,10.7-15.4,15.7c-14.8,22.4-11.6,51,7.9,70.1c10.5,10.3,24.2,15.9,38.8,16c37.3,0.1,64.7-36.7,53.7-72c-3.2-10.1-9.4-19.3-17.6-26.2c-7.2-6-14-9.5-23.2-11.9C140.9,13.3,129.9,12.9,124.2,13.9z M142.2,21.3c5.3,0.9,9.1,2.2,14,4.6c12.3,6.1,21.1,17.2,24.7,30.9c1.1,4.1,1.2,5.5,1.2,12c0,5.2-0.2,8.3-0.7,10.6c-3.3,14.6-12.2,26.2-25,32.8c-7.8,4-14.8,5.4-25,5.1c-10.1-0.3-17.2-2.6-25.2-7.9C87.4,96.8,80,72.2,88.5,50.6C96.8,29.6,119.2,17.4,142.2,21.3z"/><path fill="#000000" d="M119.3,145.5c-44.9,3.4-83.1,21.3-100.2,46.9c-5.3,7.9-7.9,15.2-8.8,24.3l-0.3,3.4h3.7h3.7l0.3-3.3c1.9-19.2,17-36.9,41.5-48.7c15.9-7.7,33.3-12.4,55.5-14.8c8.2-0.9,31.7-0.8,40.3,0.2c28.6,3.3,52.7,11.9,69.9,24.8l4.2,3.2l2.2-2.5c1.2-1.3,2.2-2.7,2.2-3c0-0.3-1.6-1.8-3.5-3.1c-18-13.3-43.8-22.9-70.7-26.2C146.6,145,131,144.6,119.3,145.5z"/><path fill="#000000" d="M212.4,195.9V209h-13.1h-13.1v3.7v3.7h13.1h13.1v13.1v13.1h3.7h3.7v-13.1v-13.1h13.1H246v-3.7V209h-13.1h-13.1v-13.1v-13.1h-3.7h-3.7V195.9z"/></g></g></g>
</svg>