<svg width="20" height="20" viewBox="0 0 20 20" fill="none" xmlns="http://www.w3.org/2000/svg">
<path d="M7.5 10.625C7.99728 10.625 8.47454 10.8222 8.82617 11.1738C9.1778 11.5255 9.375 12.0027 9.375 12.5V15C9.375 15.4973 9.1778 15.9745 8.82617 16.3262C8.47454 16.6778 7.99728 16.875 7.5 16.875H5C4.50272 16.875 4.02546 16.6778 3.67383 16.3262C3.3222 15.9745 3.125 15.4973 3.125 15V12.5C3.125 12.0027 3.3222 11.5255 3.67383 11.1738C4.02546 10.8222 4.50272 10.625 5 10.625H7.5ZM15 10.625C15.4973 10.625 15.9745 10.8222 16.3262 11.1738C16.6778 11.5255 16.875 12.0027 16.875 12.5V15C16.875 15.4973 16.6778 15.9745 16.3262 16.3262C15.9745 16.6778 15.4973 16.875 15 16.875H12.5C12.0027 16.875 11.5255 16.6778 11.1738 16.3262C10.8222 15.9745 10.625 15.4973 10.625 15V12.5C10.625 12.0027 10.8222 11.5255 11.1738 11.1738C11.5255 10.8222 12.0027 10.625 12.5 10.625H15ZM5 11.875C4.83491 11.8772 4.67729 11.9438 4.56055 12.0605C4.4438 12.1773 4.37716 12.3349 4.375 12.5V15C4.37716 15.1651 4.4438 15.3227 4.56055 15.4395C4.67729 15.5562 4.83491 15.6228 5 15.625H7.5C7.66509 15.6228 7.82271 15.5562 7.93945 15.4395C8.0562 15.3227 8.12284 15.1651 8.125 15V12.5C8.12284 12.3349 8.0562 12.1773 7.93945 12.0605C7.82271 11.9438 7.66509 11.8772 7.5 11.875H5ZM12.5 11.875C12.3349 11.8772 12.1773 11.9438 12.0605 12.0605C11.9438 12.1773 11.8772 12.3349 11.875 12.5V15C11.8772 15.1651 11.9438 15.3227 12.0605 15.4395C12.1773 15.5562 12.3349 15.6228 12.5 15.625H15C15.1651 15.6228 15.3227 15.5562 15.4395 15.4395C15.5562 15.3227 15.6228 15.1651 15.625 15V12.5C15.6228 12.3349 15.5562 12.1773 15.4395 12.0605C15.3227 11.9438 15.1651 11.8772 15 11.875H12.5ZM7.5 3.125C7.99728 3.125 8.47454 3.3222 8.82617 3.67383C9.1778 4.02546 9.375 4.50272 9.375 5V7.5C9.375 7.99728 9.1778 8.47454 8.82617 8.82617C8.47454 9.1778 7.99728 9.375 7.5 9.375H5C4.50272 9.375 4.02546 9.1778 3.67383 8.82617C3.3222 8.47454 3.125 7.99728 3.125 7.5V5C3.125 4.50272 3.3222 4.02546 3.67383 3.67383C4.02546 3.3222 4.50272 3.125 5 3.125H7.5ZM15 3.125C15.4973 3.125 15.9745 3.3222 16.3262 3.67383C16.6778 4.02546 16.875 4.50272 16.875 5V7.5C16.875 7.99728 16.6778 8.47454 16.3262 8.82617C15.9745 9.1778 15.4973 9.375 15 9.375H12.5C12.0027 9.375 11.5255 9.1778 11.1738 8.82617C10.8222 8.47454 10.625 7.99728 10.625 7.5V5C10.625 4.50272 10.8222 4.02546 11.1738 3.67383C11.5255 3.3222 12.0027 3.125 12.5 3.125H15ZM5 4.375C4.83491 4.37716 4.67729 4.4438 4.56055 4.56055C4.4438 4.67729 4.37716 4.83491 4.375 5V7.5C4.37716 7.66509 4.4438 7.82271 4.56055 7.93945C4.67729 8.0562 4.83491 8.12284 5 8.125H7.5C7.66509 8.12284 7.82271 8.0562 7.93945 7.93945C8.0562 7.82271 8.12284 7.66509 8.125 7.5V5C8.12284 4.83491 8.0562 4.67729 7.93945 4.56055C7.82271 4.4438 7.66509 4.37716 7.5 4.375H5ZM12.5 4.375C12.3349 4.37716 12.1773 4.4438 12.0605 4.56055C11.9438 4.67729 11.8772 4.83491 11.875 5V7.5C11.8772 7.66509 11.9438 7.82271 12.0605 7.93945C12.1773 8.0562 12.3349 8.12284 12.5 8.125H15C15.1651 8.12284 15.3227 8.0562 15.4395 7.93945C15.5562 7.82271 15.6228 7.66509 15.625 7.5V5C15.6228 4.83491 15.5562 4.67729 15.4395 4.56055C15.3227 4.4438 15.1651 4.37716 15 4.375H12.5Z" fill="#704264"/>
</svg>
