<svg width="20" height="20" viewBox="0 0 20 20" fill="none" xmlns="http://www.w3.org/2000/svg">
<path d="M10 11.4585C11.9333 11.4585 16.458 11.4591 16.458 15.4175C16.4558 15.5824 16.3891 15.7402 16.2725 15.8569C16.1557 15.9735 15.9979 16.0403 15.833 16.0425C15.668 16.0402 15.5102 15.9736 15.3936 15.8569C15.2769 15.7402 15.2102 15.5824 15.208 15.4175C15.208 13.7925 14.325 12.7085 10 12.7085C5.675 12.7085 4.79199 13.7925 4.79199 15.4175C4.79191 15.5831 4.72553 15.7417 4.6084 15.8589C4.49126 15.976 4.33264 16.0424 4.16699 16.0425C4.00123 16.0425 3.84182 15.9761 3.72461 15.8589C3.60758 15.7417 3.54208 15.583 3.54199 15.4175C3.54199 11.4591 8.06667 11.4585 10 11.4585ZM9.39062 4.01902C9.99674 3.89851 10.6253 3.96026 11.1963 4.19676C11.7671 4.4333 12.2553 4.83433 12.5986 5.34812C12.9418 5.86184 13.1249 6.46571 13.125 7.08347C13.125 7.9122 12.7959 8.7074 12.21 9.29344C11.6239 9.87949 10.8288 10.2085 10 10.2085C9.38193 10.2085 8.77758 10.0255 8.26367 9.68211C7.7499 9.33877 7.3498 8.85064 7.11328 8.27976C6.87676 7.70876 6.814 7.08028 6.93457 6.4741C7.05512 5.86806 7.35318 5.31148 7.79004 4.87449C8.22708 4.43745 8.78443 4.1396 9.39062 4.01902ZM10 5.20847C9.62916 5.20847 9.26635 5.31885 8.95801 5.52488C8.64978 5.7309 8.40945 6.02416 8.26758 6.36668C8.1258 6.70918 8.08881 7.08611 8.16113 7.44969C8.23348 7.81328 8.41172 8.14747 8.67383 8.40965C8.93594 8.67175 9.27026 8.84993 9.63379 8.92234C9.9975 8.99469 10.3752 8.95781 10.7178 8.8159C11.0602 8.67399 11.3526 8.43365 11.5586 8.12547C11.7646 7.81712 11.875 7.45431 11.875 7.08347C11.8749 6.58646 11.6775 6.1098 11.3262 5.75828C10.9745 5.40665 10.4973 5.20847 10 5.20847Z" fill="#704264"/>
</svg>
