<svg width="20" height="20" viewBox="0 0 20 20" fill="none" xmlns="http://www.w3.org/2000/svg">
<path d="M15.8333 3.54199H4.16659C3.78049 3.54418 3.41082 3.69853 3.13781 3.97155C2.86479 4.24456 2.71044 4.61423 2.70825 5.00033V15.0003C2.71044 15.3864 2.86479 15.7561 3.13781 16.0291C3.41082 16.3021 3.78049 16.4565 4.16659 16.4587H15.8333C16.2194 16.4565 16.589 16.3021 16.862 16.0291C17.1351 15.7561 17.2894 15.3864 17.2916 15.0003V5.00033C17.2894 4.61423 17.1351 4.24456 16.862 3.97155C16.589 3.69853 16.2194 3.54418 15.8333 3.54199ZM4.16659 4.79199H15.8333C15.8885 4.79199 15.9415 4.81394 15.9806 4.85301C16.0196 4.89208 16.0416 4.94507 16.0416 5.00033V6.28366L9.99992 9.30033L3.95825 6.28366V5.00033C3.95825 4.94507 3.9802 4.89208 4.01927 4.85301C4.05834 4.81394 4.11133 4.79199 4.16659 4.79199ZM15.8333 15.2087H4.16659C4.11133 15.2087 4.05834 15.1867 4.01927 15.1476C3.9802 15.1086 3.95825 15.0556 3.95825 15.0003V7.67533L9.71659 10.5587C9.80455 10.6027 9.90156 10.6256 9.99992 10.6256C10.0983 10.6256 10.1953 10.6027 10.2833 10.5587L16.0416 7.67533V15.0003C16.0416 15.0556 16.0196 15.1086 15.9806 15.1476C15.9415 15.1867 15.8885 15.2087 15.8333 15.2087Z" fill="#704264"/>
</svg>
