<svg width="20" height="20" viewBox="0 0 20 20" fill="none" xmlns="http://www.w3.org/2000/svg">
<path d="M5.83398 15.0003C4.30982 15.3437 3.33398 15.8703 3.33398 16.462C3.33398 17.4953 6.31898 18.3337 10.0007 18.3337C13.6823 18.3337 16.6673 17.4953 16.6673 16.462C16.6673 15.8703 15.6915 15.3437 14.1673 15.0003M12.084 7.50033C12.084 8.05286 11.8645 8.58276 11.4738 8.97346C11.0831 9.36417 10.5532 9.58366 10.0007 9.58366C9.44812 9.58366 8.91821 9.36417 8.52751 8.97346C8.13681 8.58276 7.91732 8.05286 7.91732 7.50033C7.91732 6.94779 8.13681 6.41789 8.52751 6.02719C8.91821 5.63649 9.44812 5.41699 10.0007 5.41699C10.5532 5.41699 11.0831 5.63649 11.4738 6.02719C11.8645 6.41789 12.084 6.94779 12.084 7.50033Z" stroke="#704264" stroke-linecap="round" stroke-linejoin="round"/>
<path d="M11.0472 14.5787C10.7658 14.8495 10.3904 15.0007 9.99975 15.0007C9.60915 15.0007 9.23373 14.8495 8.95225 14.5787C6.37808 12.0845 2.92892 9.29866 4.61058 5.25366C5.52142 3.06616 7.70475 1.66699 9.99975 1.66699C12.2947 1.66699 14.4789 3.06699 15.3889 5.25366C17.0689 9.29283 13.6281 12.0928 11.0472 14.5787Z" stroke="#704264" stroke-linecap="round" stroke-linejoin="round"/>
</svg>
