<?xml version="1.0" encoding="utf-8"?>
<!-- Svg Vector Icons : http://www.onlinewebfonts.com/icon -->
<!DOCTYPE svg PUBLIC "-//W3C//DTD SVG 1.1//EN" "http://www.w3.org/Graphics/SVG/1.1/DTD/svg11.dtd">
<svg version="1.1" xmlns="http://www.w3.org/2000/svg" xmlns:xlink="http://www.w3.org/1999/xlink" x="0px" y="0px" viewBox="0 0 256 256" enable-background="new 0 0 256 256" xml:space="preserve">
<metadata> Svg Vector Icons : http://www.onlinewebfonts.com/icon </metadata>
<g><g><path fill="#000000" d="M206.7,106.8h-18.2V64.5h-0.3C185.2,33.9,159.4,10,128,10c-31.4,0-57.2,23.9-60.2,54.5h-0.3v42.4H49.3c-10,0-18.2,8.1-18.2,18.2v102.9c0,10,8.1,18.2,18.2,18.2h157.3c10,0,18.2-8.1,18.2-18.2V125C224.8,114.9,216.7,106.8,206.7,106.8z M79.6,70.5c0-26.7,21.7-48.4,48.4-48.4c26.7,0,48.4,21.7,48.4,48.4v36.3H79.6V70.5z M212.7,221.8c0,6.7-5.4,12.1-12.1,12.1H55.4c-6.7,0-12.1-5.4-12.1-12.1V131c0-6.7,5.4-12.1,12.1-12.1h145.2c6.7,0,12.1,5.4,12.1,12.1L212.7,221.8L212.7,221.8z M128,155.2c-6.7,0-12.1,5.4-12.1,12.1c0,4.5,2.5,8.3,6,10.4v13.8c0,3.3,2.7,6,6,6c3.3,0,6-2.7,6-6v-13.8c3.6-2.1,6-5.9,6-10.4C140.1,160.6,134.7,155.2,128,155.2z"/></g></g>
</svg>