<svg width="20" height="20" viewBox="0 0 20 20" fill="none" xmlns="http://www.w3.org/2000/svg">
<path fill-rule="evenodd" clip-rule="evenodd" d="M9.0625 2.8124C9.2351 2.8124 9.375 2.9523 9.375 3.1249V9.0624C9.375 9.23498 9.2351 9.3749 9.0625 9.3749H3.125C2.9524 9.3749 2.8125 9.23498 2.8125 9.0624V3.1249C2.8125 2.9523 2.9524 2.8124 3.125 2.8124H9.0625ZM8.04687 4.14053H4.14062V8.04678H8.04687V4.14053ZM17.6823 5.85314C17.8043 5.97518 17.8043 6.17305 17.6823 6.29508L14.1467 9.83062C14.0247 9.95266 13.8269 9.95266 13.7048 9.83062L10.1693 6.29508C10.0472 6.17305 10.0472 5.97518 10.1693 5.85314L13.7048 2.3176C13.8269 2.19557 14.0247 2.19557 14.1468 2.3176L17.6823 5.85314ZM16.025 6.0741L13.9258 3.9749L11.8266 6.07412L13.9258 8.17334L16.025 6.0741ZM9.0625 10.6249C9.2351 10.6249 9.375 10.7648 9.375 10.9374V16.8749C9.375 17.0475 9.2351 17.1874 9.0625 17.1874H3.125C2.9524 17.1874 2.8125 17.0475 2.8125 16.8749V10.9374C2.8125 10.7648 2.9524 10.6249 3.125 10.6249H9.0625ZM8.04687 11.953H4.14062V15.8593H8.04687V11.953ZM16.875 10.6249C17.0476 10.6249 17.1875 10.7648 17.1875 10.9374V16.8749C17.1875 17.0475 17.0476 17.1874 16.875 17.1874H10.9375C10.7649 17.1874 10.625 17.0475 10.625 16.8749V10.9374C10.625 10.7648 10.7649 10.6249 10.9375 10.6249H16.875ZM15.8594 11.953H11.9531V15.8593H15.8594V11.953Z" fill="#F15D22"/>
</svg>
