<svg width="20" height="20" viewBox="0 0 20 20" fill="none" xmlns="http://www.w3.org/2000/svg">
<path d="M6.80556 4L5 6.5V15.25C5 15.5815 5.12682 15.8995 5.35256 16.1339C5.57829 16.3683 5.88446 16.5 6.2037 16.5H14.6296C14.9489 16.5 15.255 16.3683 15.4808 16.1339C15.7065 15.8995 15.8333 15.5815 15.8333 15.25V6.5L14.0278 4H6.80556Z" stroke="#704264" stroke-width="1.3" stroke-linecap="round" stroke-linejoin="round"/>
<path d="M5 6.5H15.8333" stroke="#704264" stroke-width="1.3" stroke-linecap="round" stroke-linejoin="round"/>
<path d="M12.8241 9C12.8241 9.66304 12.5705 10.2989 12.119 10.7678C11.6675 11.2366 11.0552 11.5 10.4167 11.5C9.7782 11.5 9.16587 11.2366 8.71439 10.7678C8.26291 10.2989 8.00928 9.66304 8.00928 9" stroke="#704264" stroke-width="1.3" stroke-linecap="round" stroke-linejoin="round"/>
</svg>
