<svg width="20" height="20" viewBox="0 0 20 20" fill="none" xmlns="http://www.w3.org/2000/svg">
<path d="M17.275 13.7668C17.275 13.7668 17.275 13.7085 17.275 13.6752V6.32516C17.2747 6.22953 17.2518 6.13531 17.2083 6.05016C17.1469 5.91782 17.0407 5.81153 16.9083 5.75016L10.2416 2.76683C10.1605 2.72999 10.0724 2.71094 9.98332 2.71094C9.89421 2.71094 9.80613 2.72999 9.72498 2.76683L3.05832 5.75016C2.9511 5.80412 2.86043 5.88602 2.7959 5.98723C2.73136 6.08843 2.69534 6.20518 2.69165 6.32516V13.6752C2.69788 13.7945 2.73493 13.9102 2.79919 14.011C2.86345 14.1118 2.95273 14.1942 3.05832 14.2502L9.72498 17.2335C9.80567 17.272 9.89393 17.292 9.98332 17.292C10.0727 17.292 10.161 17.272 10.2416 17.2335L16.9083 14.2502C17.0046 14.2061 17.0884 14.1389 17.1524 14.0546C17.2164 13.9702 17.2585 13.8714 17.275 13.7668ZM3.94165 7.28349L9.35832 9.71683V15.7002L3.94165 13.2752V7.28349ZM10.6083 9.71683L16.025 7.28349V13.2752L10.6083 15.7002V9.71683ZM9.99998 4.01683L15.1417 6.32516L9.99998 8.62516L4.85832 6.32516L9.99998 4.01683Z" fill="#704264"/>
</svg>
