<svg width="20" height="20" viewBox="0 0 20 20" fill="none" xmlns="http://www.w3.org/2000/svg">
<path d="M8.33333 9.16667C10.1743 9.16667 11.6667 7.67428 11.6667 5.83333C11.6667 3.99238 10.1743 2.5 8.33333 2.5C6.49238 2.5 5 3.99238 5 5.83333C5 7.67428 6.49238 9.16667 8.33333 9.16667Z" stroke="#704264" stroke-width="1.2" stroke-linecap="round" stroke-linejoin="round"/>
<path d="M8.58333 12.5H5.83333C4.94928 12.5 4.10143 12.8512 3.47631 13.4763C2.85119 14.1014 2.5 14.9493 2.5 15.8333V17.5M12.5 12.9167V11.6667C12.5 11.2246 12.6756 10.8007 12.9882 10.4882C13.3007 10.1756 13.7246 10 14.1667 10C14.6087 10 15.0326 10.1756 15.3452 10.4882C15.6577 10.8007 15.8333 11.2246 15.8333 11.6667V12.9167" stroke="#704264" stroke-width="1.2" stroke-linecap="round" stroke-linejoin="round"/>
<path d="M16.7505 13.333H11.5822C11.1684 13.333 10.833 13.6684 10.833 14.0822V16.7505C10.833 17.1643 11.1684 17.4997 11.5822 17.4997H16.7505C17.1643 17.4997 17.4997 17.1643 17.4997 16.7505V14.0822C17.4997 13.6684 17.1643 13.333 16.7505 13.333Z" stroke="#704264" stroke-width="1.2" stroke-linecap="round" stroke-linejoin="round"/>
</svg>
