<?xml version="1.0" encoding="UTF-8"?>
<svg version="1.1" xmlns="http://www.w3.org/2000/svg" width="512" height="512">
<path d="M0 0 C15.54640863 14.79605407 26.09479442 34.25621194 26.828125 55.95703125 C27.28131903 81.74255765 21.0538569 100.61282789 4.58984375 120.46484375 C3.25429565 122.12973619 1.92019811 123.79579826 0.58984375 125.46484375 C1.37746094 125.85414063 2.16507813 126.2434375 2.9765625 126.64453125 C16.75740869 133.72250432 27.59162809 142.86526219 38.16796875 154.1484375 C39.73408815 155.71466773 39.73408815 155.71466773 42.71484375 157.08984375 C47.84712099 159.88127505 51.62146109 164.25349889 55.58984375 168.46484375 C58.86192454 167.17144954 62.09979191 165.82288491 65.3203125 164.40625 C66.6496582 163.82713867 66.6496582 163.82713867 68.00585938 163.23632812 C69.83567934 162.43811913 71.66384615 161.63610835 73.49023438 160.83007812 C79.42267782 158.25578317 85.35323092 156.17584748 91.58984375 154.46484375 C91.615625 153.33046875 91.64140625 152.19609375 91.66796875 151.02734375 C92.18497453 135.37664191 92.18497453 135.37664191 96.58984375 129.46484375 C102.54465792 125.09755341 107.46115897 124.87550796 114.7109375 124.93359375 C115.76966568 124.92976685 116.82839386 124.92593994 117.91920471 124.92199707 C120.15065465 124.919284 122.38213672 124.92660261 124.61352539 124.94335938 C128.01326057 124.96475512 131.41087743 124.94354682 134.81054688 124.91796875 C136.98568171 124.92061255 139.16081524 124.9257386 141.3359375 124.93359375 C142.34450302 124.92549683 143.35306854 124.9173999 144.39219666 124.90905762 C150.57383833 124.99043221 155.4710764 125.81548481 160.58984375 129.46484375 C164.65944998 134.71594857 164.8052021 140.27280527 165.15234375 146.71484375 C165.19552734 147.45992187 165.23871094 148.205 165.28320312 148.97265625 C165.388811 150.80319275 165.48978576 152.63399551 165.58984375 154.46484375 C166.70359375 154.80515625 167.81734375 155.14546875 168.96484375 155.49609375 C177.92240186 158.31668757 186.27626181 161.44667731 194.4609375 166.09960938 C197.92013876 168.08708525 197.92013876 168.08708525 201.7578125 167.96484375 C204.87207931 165.41499629 207.53140863 162.4961412 210.2734375 159.55859375 C214.3051551 155.91441055 217.96755601 155.25080678 223.33203125 155.00390625 C230.13732308 156.39322188 235.02582595 161.45560427 239.73046875 166.20703125 C240.37933044 166.85302277 241.02819214 167.49901428 241.69671631 168.1645813 C243.05833462 169.52416905 244.41621575 170.88750891 245.77050781 172.25439453 C247.83725352 174.33723335 249.91955628 176.40354503 252.00390625 178.46875 C253.33039023 179.79721607 254.65594346 181.12661229 255.98046875 182.45703125 C256.59923889 183.0697287 257.21800903 183.68242615 257.85552979 184.31369019 C262.28564121 188.81630614 266.01534799 193.34318252 266.02734375 199.96484375 C265.65227089 208.6203714 258.45438467 213.82586209 252.58984375 219.46484375 C253.93944603 223.89260295 255.71926714 227.76412201 257.90234375 231.83984375 C261.72950354 239.20679979 266.58984375 249.02659511 266.58984375 257.46484375 C267.16951904 257.4491333 267.74919434 257.43342285 268.34643555 257.41723633 C270.98997114 257.35461584 273.6333503 257.31576857 276.27734375 257.27734375 C277.64536133 257.23963867 277.64536133 257.23963867 279.04101562 257.20117188 C287.9158014 257.10435603 287.9158014 257.10435603 291.58984375 260.46484375 C295.98077739 266.54192857 296.16560846 271.50831113 296.0859375 278.875 C296.08739273 279.96066757 296.08884796 281.04633514 296.09034729 282.16490173 C296.08869275 284.45184015 296.07718159 286.73879021 296.05639648 289.02563477 C296.02740862 292.51952521 296.03580472 296.01189996 296.04882812 299.50585938 C296.04259109 301.73308026 296.03420043 303.96029638 296.0234375 306.1875 C296.02637314 307.22826187 296.02930878 308.26902374 296.03233337 309.34132385 C295.96174548 314.78387769 295.70835336 318.79479031 292.58984375 323.46484375 C288.66189574 327.09819566 285.69017194 328.60030707 280.359375 328.5625 C279.55693359 328.55927734 278.75449219 328.55605469 277.92773438 328.55273438 C277.09435547 328.54435547 276.26097656 328.53597656 275.40234375 328.52734375 C274.55736328 328.52283203 273.71238281 328.51832031 272.84179688 328.51367188 C270.7577822 328.50189778 268.67380398 328.48396265 266.58984375 328.46484375 C266.45449219 329.14546875 266.31914062 329.82609375 266.1796875 330.52734375 C264.27545872 339.10207456 261.07088776 346.72493358 257.41796875 354.66162109 C256.3049178 357.08526328 255.22836625 359.52457843 254.15234375 361.96484375 C253.63671875 363.11984375 253.12109375 364.27484375 252.58984375 365.46484375 C253.36070312 366.2125 254.1315625 366.96015625 254.92578125 367.73046875 C255.93906731 368.72499026 256.9520735 369.71979698 257.96484375 370.71484375 C258.47273438 371.20597656 258.980625 371.69710938 259.50390625 372.203125 C263.80780261 376.45039115 265.87021953 379.26496914 265.96484375 385.33984375 C265.99320312 386.16226562 266.0215625 386.9846875 266.05078125 387.83203125 C264.90804323 394.3591959 259.18393763 399.20381029 254.69921875 403.7265625 C254.03577454 404.39903519 253.37233032 405.07150787 252.68878174 405.76435852 C251.28954509 407.17804177 249.88753288 408.58898263 248.48291016 409.99731445 C246.34807652 412.14406502 244.23263278 414.30877294 242.1171875 416.47460938 C240.74985237 417.8514079 239.38139887 419.22709683 238.01171875 420.6015625 C237.38747009 421.24534348 236.76322144 421.88912445 236.12005615 422.55241394 C231.48598252 427.14009765 226.91464194 430.15492336 220.19140625 430.63671875 C213.01597774 429.10520436 208.63055562 424.57225691 203.58984375 419.46484375 C202.92984375 418.80484375 202.26984375 418.14484375 201.58984375 417.46484375 C197.67587654 417.81763331 194.75629486 419.29281822 191.33984375 421.15234375 C186.18386522 423.80417331 180.98473802 425.91606004 175.52734375 427.83984375 C174.7890332 428.10240967 174.05072266 428.36497559 173.29003906 428.63549805 C170.27280124 429.67603321 167.80393821 430.46484375 164.58984375 430.46484375 C164.61304688 431.55023438 164.63625 432.635625 164.66015625 433.75390625 C164.67892645 435.19921182 164.69712531 436.6445249 164.71484375 438.08984375 C164.73160156 438.80269531 164.74835938 439.51554687 164.765625 440.25 C164.82925546 447.18572064 163.47414462 452.29323107 158.58984375 457.46484375 C155.48145846 459.39032869 153.08674292 459.72451929 149.45751953 459.75537109 C148.4361087 459.7681308 147.41469788 459.7808905 146.36233521 459.79403687 C144.71538162 459.79737534 144.71538162 459.79737534 143.03515625 459.80078125 C141.90085175 459.80743805 140.76654724 459.81409485 139.59786987 459.82095337 C137.19888938 459.83107635 134.79988074 459.8357705 132.40087891 459.83544922 C128.7355291 459.83981909 125.07138653 459.87613541 121.40625 459.9140625 C119.07422286 459.91993138 116.74219001 459.92390029 114.41015625 459.92578125 C112.76927536 459.9473378 112.76927536 459.9473378 111.09524536 459.96932983 C104.93656485 459.93245584 101.26746152 459.6018855 96.58984375 455.46484375 C93.471533 451.91642117 92.45894562 448.92147986 92.4921875 444.234375 C92.49541016 443.43193359 92.49863281 442.62949219 92.50195312 441.80273438 C92.51033203 440.96935547 92.51871094 440.13597656 92.52734375 439.27734375 C92.53185547 438.43236328 92.53636719 437.58738281 92.54101562 436.71679688 C92.55278972 434.6327822 92.57072485 432.54880398 92.58984375 430.46484375 C91.67452881 430.31571533 91.67452881 430.31571533 90.74072266 430.16357422 C84.40947237 429.02974564 78.83789493 427.17976304 72.96484375 424.58984375 C72.17078125 424.25082031 71.37671875 423.91179687 70.55859375 423.5625 C65.47438442 421.37045565 60.52109671 418.98124972 55.58984375 416.46484375 C54.82800781 417.30789063 54.06617188 418.1509375 53.28125 419.01953125 C43.41634728 429.61760368 43.41634728 429.61760368 36.8203125 430.64453125 C28.77444856 429.99635307 25.01185972 426.59787838 19.5390625 420.97265625 C18.79904495 420.23030731 18.0590274 419.48795837 17.29658508 418.72311401 C15.7402275 417.15704236 14.18988754 415.58497008 12.64526367 414.00732422 C10.28019236 411.59275198 7.8968796 409.19745058 5.50976562 406.8046875 C3.99759603 405.27843468 2.48649098 403.75112624 0.9765625 402.22265625 C0.26513596 401.505867 -0.44629059 400.78907776 -1.17927551 400.05056763 C-2.16621651 399.03964554 -2.16621651 399.03964554 -3.1730957 398.00830078 C-3.75154739 397.41920929 -4.32999908 396.8301178 -4.92597961 396.22317505 C-8.49361874 391.9965275 -8.86035052 388.30079514 -8.7109375 382.9140625 C-7.80786488 375.56047118 -0.47911639 370.33884389 4.58984375 365.46484375 C4.3475 364.96033691 4.10515625 364.45583008 3.85546875 363.93603516 C2.76292048 361.65586591 1.67631999 359.37291206 0.58984375 357.08984375 C0.20828125 356.29578125 -0.17328125 355.50171875 -0.56640625 354.68359375 C-0.92734375 353.92304688 -1.28828125 353.1625 -1.66015625 352.37890625 C-1.9953125 351.67717285 -2.33046875 350.97543945 -2.67578125 350.25244141 C-3.41015625 348.46484375 -3.41015625 348.46484375 -3.41015625 346.46484375 C-4.22922266 346.46853092 -5.04828907 346.47221809 -5.89217567 346.476017 C-25.82258075 346.56435736 -45.75295208 346.63054819 -65.68351173 346.67209244 C-75.32179419 346.69271698 -84.95994596 346.72083554 -94.59814453 346.76660156 C-102.99888139 346.80647261 -111.3995236 346.83227735 -119.80035245 346.84119773 C-124.24849691 346.84641203 -128.69637059 346.85866523 -133.14442825 346.88776398 C-137.33214599 346.91493735 -141.51948168 346.92328491 -145.70727921 346.91727448 C-147.24315976 346.91837386 -148.77905324 346.92631652 -150.31485748 346.94166565 C-152.41517511 346.96162494 -154.51405825 346.956763 -156.6144104 346.94586182 C-157.78877466 346.94954899 -158.96313892 346.95323616 -160.17308998 346.95703506 C-164.91506548 346.23602445 -168.03550587 343.98169934 -171.22265625 340.46484375 C-173.34062428 336.89773969 -173.53603364 333.5518867 -173.54386902 329.4598999 C-173.548134 328.45099701 -173.55239899 327.44209412 -173.55679321 326.40261841 C-173.55611343 324.75070999 -173.55611343 324.75070999 -173.55541992 323.06542969 C-173.55877853 321.90061066 -173.56213715 320.73579163 -173.56559753 319.53567505 C-173.57511689 315.67351216 -173.57705175 311.81139265 -173.578125 307.94921875 C-173.579549 306.61352774 -173.58114501 305.2778369 -173.58291054 303.9421463 C-173.5921679 296.93408275 -173.5962458 289.92603821 -173.59545898 282.91796875 C-173.59486125 276.42209486 -173.60535188 269.92630483 -173.62120265 263.43045211 C-173.63437272 257.83016379 -173.6396388 252.2299025 -173.63900357 246.62959886 C-173.63875092 243.29574195 -173.64241793 239.96201781 -173.65218163 236.6281662 C-173.73423242 205.69270254 -170.59108775 178.22884939 -150.41015625 153.46484375 C-149.7346875 152.62566406 -149.05921875 151.78648437 -148.36328125 150.921875 C-138.63781358 139.47492856 -126.30537163 131.848826 -113.41015625 124.46484375 C-113.95542969 123.97757813 -114.50070313 123.4903125 -115.0625 122.98828125 C-131.24591972 107.77310032 -140.11514082 87.04742052 -140.88476562 64.93139648 C-141.11191691 42.30581785 -133.34380238 21.4586245 -117.78515625 4.875 C-85.47010514 -27.91839891 -35.20466095 -30.24188937 0 0 Z M-98.09765625 25.96484375 C-108.47822251 38.62712868 -112.510749 53.34648536 -111.41015625 69.46484375 C-109.39294274 84.06213422 -101.46231344 97.57301105 -89.7421875 106.49609375 C-76.07443656 115.59507604 -61.77569068 119.34103784 -45.59765625 116.33984375 C-30.16735177 112.75217339 -17.97167552 103.80945669 -9.41015625 90.46484375 C-2.08195034 76.84139712 0.25605067 61.63532887 -3.97265625 46.58984375 C-9.01751439 32.58418863 -17.95508794 20.35208198 -31.41015625 13.46484375 C-55.32645468 3.45904543 -79.59586883 7.00260461 -98.09765625 25.96484375 Z M-105.66015625 154.02734375 C-106.64145508 154.53225342 -106.64145508 154.53225342 -107.64257812 155.04736328 C-123.17515551 163.46905097 -135.18772544 178.52774744 -140.6328125 195.2109375 C-143.67614741 205.75580287 -144.56688332 215.94273109 -144.52368164 226.87158203 C-144.52380218 227.87391813 -144.52392271 228.87625423 -144.5240469 229.90896416 C-144.52330715 233.11771832 -144.51572212 236.32641263 -144.5078125 239.53515625 C-144.50634017 241.53051729 -144.50532125 243.52587873 -144.50476074 245.52124023 C-144.49954157 252.87744734 -144.48558032 260.23364615 -144.47265625 267.58984375 C-144.45203125 284.04859375 -144.43140625 300.50734375 -144.41015625 317.46484375 C-109.43015625 317.46484375 -74.45015625 317.46484375 -38.41015625 317.46484375 C-38.08015625 300.96484375 -37.75015625 284.46484375 -37.41015625 267.46484375 C-32.82852776 259.44699388 -32.82852776 259.44699388 -29.41015625 258.46484375 C-27.12011719 258.14599609 -27.12011719 258.14599609 -24.64453125 258.05078125 C-23.75507813 258.01210938 -22.865625 257.9734375 -21.94921875 257.93359375 C-21.02882813 257.90265625 -20.1084375 257.87171875 -19.16015625 257.83984375 C-18.22429687 257.80117188 -17.2884375 257.7625 -16.32421875 257.72265625 C-14.01972571 257.62859531 -11.71523612 257.54294976 -9.41015625 257.46484375 C-9.06984375 256.36269531 -8.72953125 255.26054687 -8.37890625 254.125 C-5.49740272 245.03120102 -2.224434 236.39943451 2.04882812 227.86157227 C4.06152701 223.86208381 4.06152701 223.86208381 4.58984375 219.46484375 C2.9580185 217.54366285 2.9580185 217.54366285 0.83984375 215.65234375 C-4.15398214 210.76476947 -7.57792504 207.31608485 -8.03515625 200.08984375 C-7.73277623 193.83225716 -5.69903851 190.86464538 -1.41015625 186.46484375 C-0.86294922 185.9023291 -0.31574219 185.33981445 0.24804688 184.76025391 C4.30786445 180.60545112 8.43139352 176.52075685 12.58984375 172.46484375 C9.90166352 163.77407926 -0.01879867 158.17277223 -7.59765625 153.8125 C-18.82138478 148.43446341 -30.00446701 146.31678361 -42.37109375 146.2265625 C-43.96614243 146.21445488 -43.96614243 146.21445488 -45.59341431 146.20210266 C-47.84432362 146.18829738 -50.09525356 146.17755939 -52.34619141 146.16967773 C-54.62099453 146.15821167 -56.89577192 146.13784631 -59.17041016 146.1081543 C-75.49209639 145.89542808 -90.85912824 146.25393563 -105.66015625 154.02734375 Z M121.58984375 154.46484375 C121.55246094 155.63402344 121.51507813 156.80320313 121.4765625 158.0078125 C121.41088095 159.5560205 121.34443436 161.10419617 121.27734375 162.65234375 C121.24350586 163.80573242 121.24350586 163.80573242 121.20898438 164.98242188 C120.99297127 169.55797213 120.61649961 172.81014009 117.58984375 176.46484375 C113.12455829 180.06116229 107.47620853 180.96757092 102.02734375 182.33984375 C87.39272915 186.20096196 74.64896924 191.80448339 62.01171875 200.171875 C57.6815002 202.48365297 53.34882506 202.29799874 48.58984375 201.46484375 C45.48993102 199.87369253 43.08872513 197.87552931 40.58984375 195.46484375 C39.76484375 194.68109375 38.93984375 193.89734375 38.08984375 193.08984375 C37.59484375 192.55359375 37.09984375 192.01734375 36.58984375 191.46484375 C33.37940493 192.84672828 31.5404801 194.38906278 29.33984375 197.08984375 C28.8190625 197.72148437 28.29828125 198.353125 27.76171875 199.00390625 C27.375 199.48601562 26.98828125 199.968125 26.58984375 200.46484375 C27.40388672 201.22667969 27.40388672 201.22667969 28.234375 202.00390625 C33.50118635 207.07143285 37.17838501 210.82049491 38.02734375 218.33984375 C37.7857076 223.88696932 35.11905893 228.02338782 32.234375 232.62890625 C24.67175271 244.75343207 20.00069744 257.12476637 16.80664062 271.01464844 C15.47341282 276.47537649 14.31159992 279.99537943 9.58984375 283.46484375 C3.49903399 286.15536405 -2.84209258 286.0627174 -9.41015625 286.46484375 C-9.41015625 290.75484375 -9.41015625 295.04484375 -9.41015625 299.46484375 C-7.78207031 299.50351562 -7.78207031 299.50351562 -6.12109375 299.54296875 C-4.67574276 299.59928113 -3.23043181 299.65662775 -1.78515625 299.71484375 C-1.07230469 299.72902344 -0.35945312 299.74320313 0.375 299.7578125 C5.48922328 299.9924099 8.57218506 301.04806657 12.58984375 304.46484375 C15.82744696 308.57747485 16.67269057 313.22168585 17.83984375 318.21484375 C21.73365193 333.74820757 28.06091488 346.97595838 36.58984375 360.46484375 C38.36288436 364.01092497 38.22766147 367.60183456 37.58984375 371.46484375 C35.96959494 374.78146044 33.88991084 377.58841324 31.58984375 380.46484375 C31.09097656 381.09132813 30.59210938 381.7178125 30.078125 382.36328125 C28.94071919 383.75163332 27.76925287 385.11199211 26.58984375 386.46484375 C29.22984375 389.10484375 31.86984375 391.74484375 34.58984375 394.46484375 C38.10383575 392.70784775 39.50162693 391.71805008 42.02734375 388.96484375 C46.0158979 384.90023666 48.57467731 383.60353091 54.3359375 383.20703125 C58.74742124 383.24557479 61.46155632 384.6669828 65.21484375 387.02734375 C66.44243086 387.76824846 67.67164275 388.50646679 68.90234375 389.2421875 C69.51851563 389.61585449 70.1346875 389.98952148 70.76953125 390.37451172 C80.73932932 396.34622821 90.70568702 399.98671478 101.828125 403.10546875 C105.07795123 404.02346296 108.31735754 404.96383246 111.5390625 405.9765625 C112.25795654 406.20045654 112.97685059 406.42435059 113.7175293 406.6550293 C117.29669599 408.2030924 118.91260778 411.1103718 120.58984375 414.46484375 C120.82210835 417.17746491 121.0092061 419.87257501 121.15234375 422.58984375 C121.19552734 423.34394531 121.23871094 424.09804688 121.28320312 424.875 C121.38932695 426.73806263 121.49009376 428.60142899 121.58984375 430.46484375 C126.20984375 430.46484375 130.82984375 430.46484375 135.58984375 430.46484375 C135.66332031 428.71107422 135.66332031 428.71107422 135.73828125 426.921875 C135.81334546 425.37367571 135.8888917 423.82549974 135.96484375 422.27734375 C135.99578125 421.50841797 136.02671875 420.73949219 136.05859375 419.94726562 C136.47232797 411.9139262 136.47232797 411.9139262 138.58984375 408.46484375 C141.89106389 406.94730418 145.26510882 405.93479519 148.765625 404.984375 C166.28274006 400.12623014 181.33392793 394.33065682 196.58984375 384.46484375 C199.81791193 382.85080966 203.08981501 383.01938555 206.58984375 383.46484375 C212.40884206 386.01703599 216.30900248 389.83268724 220.58984375 394.46484375 C221.72183728 393.55682755 222.84516738 392.63800549 223.96484375 391.71484375 C224.59132813 391.204375 225.2178125 390.69390625 225.86328125 390.16796875 C227.67296693 388.38284894 228.5910183 386.78534731 229.58984375 384.46484375 C229.11933594 384.02914062 228.64882813 383.5934375 228.1640625 383.14453125 C223.21404944 378.40973615 219.60591531 374.35855656 219.02734375 367.27734375 C219.26215744 361.14156002 222.49930868 356.60048977 225.58984375 351.46484375 C233.31016033 338.09821169 237.94977473 324.5755876 241.6953125 309.609375 C243.19232505 304.34695098 243.19232505 304.34695098 244.58984375 302.46484375 C249.25577745 300.29301275 253.90769662 300.05932211 258.96484375 299.83984375 C259.70089844 299.80117188 260.43695313 299.7625 261.1953125 299.72265625 C262.99311781 299.62926377 264.79144483 299.54600665 266.58984375 299.46484375 C266.58984375 295.17484375 266.58984375 290.88484375 266.58984375 286.46484375 C263.61984375 286.31015625 263.61984375 286.31015625 260.58984375 286.15234375 C248.03210313 285.16742292 248.03210313 285.16742292 243.98193359 280.68554688 C242.43687514 278.22082368 241.70055249 276.05169912 240.94140625 273.24609375 C240.66111572 272.23724121 240.3808252 271.22838867 240.09204102 270.18896484 C239.80256592 269.12500488 239.51309082 268.06104492 239.21484375 266.96484375 C234.97736419 251.99795516 229.45331325 238.87730545 220.875 225.86328125 C218.70995945 221.82274964 218.95676364 217.92518091 219.58984375 213.46484375 C222.14799137 208.24622261 226.41115128 204.43225402 230.58984375 200.46484375 C229.68182755 199.33285022 228.76300549 198.20952012 227.83984375 197.08984375 C227.329375 196.46335938 226.81890625 195.836875 226.29296875 195.19140625 C224.50784894 193.38172057 222.91034731 192.4636692 220.58984375 191.46484375 C219.90277344 192.10292969 219.21570313 192.74101562 218.5078125 193.3984375 C217.60675781 194.22472656 216.70570313 195.05101562 215.77734375 195.90234375 C214.88402344 196.72605469 213.99070312 197.54976562 213.0703125 198.3984375 C209.04339034 201.75314903 205.33674685 201.87417998 200.28271484 201.81738281 C195.64022588 201.20960819 192.25776305 198.86650872 188.40234375 196.33984375 C176.50201425 189.03503726 164.71691413 184.39545847 151.109375 181.28759766 C145.64042305 179.98408686 140.86921511 178.370709 137.25390625 173.76171875 C136.2025272 170.12518415 136.11481484 166.48286727 135.96484375 162.71484375 C135.92617188 161.92207031 135.8875 161.12929687 135.84765625 160.3125 C135.75373575 158.36364959 135.67071553 156.41427924 135.58984375 154.46484375 C130.96984375 154.46484375 126.34984375 154.46484375 121.58984375 154.46484375 Z " fill="#000000" transform="translate(194.41015625,36.53515625)"/>
<path d="M0 0 C15.98437384 13.33103708 25.93740739 31.03900951 28.47119141 51.77197266 C29.76910771 72.4960789 24.94466869 92.59872029 11.29931641 108.76416016 C10.69603516 109.42673828 10.09275391 110.08931641 9.47119141 110.77197266 C8.80603516 111.51705078 8.14087891 112.26212891 7.45556641 113.02978516 C-5.15431158 126.41077079 -23.12257565 135.2798144 -41.65771484 136.10791016 C-65.95200142 136.51414686 -84.79378817 129.99076671 -102.59130859 113.08447266 C-117.38177726 97.83538481 -123.91158423 78.99905932 -123.83178711 58.01855469 C-123.38069676 36.86096222 -114.45603997 18.55140966 -99.52880859 3.77197266 C-72.5290758 -21.4887943 -28.90536512 -23.21845841 0 0 Z M-80.34521484 26.45947266 C-89.77780388 36.44890505 -94.94845146 48.05322226 -94.73974609 61.93212891 C-94.01381111 71.70536476 -91.28251113 79.85553087 -85.52880859 87.77197266 C-85.01447266 88.48095703 -84.50013672 89.18994141 -83.97021484 89.92041016 C-77.08327804 98.54146773 -67.36986739 103.81170796 -56.77880859 106.45947266 C-42.79775424 107.80380481 -31.15683963 105.94076865 -19.52880859 97.77197266 C-18.66642578 97.16869141 -18.66642578 97.16869141 -17.78662109 96.55322266 C-8.544479 89.46598416 -2.62281752 77.85827675 -0.74755859 66.49853516 C0.44452795 51.64002792 -3.63493885 39.21746299 -13.11865234 27.86962891 C-22.04548026 18.27066336 -33.57211146 13.54439641 -46.48974609 12.77587891 C-59.44415951 12.75922799 -71.08805741 17.4541099 -80.34521484 26.45947266 Z " fill="#000000" transform="translate(370.52880859375,269.22802734375)"/>
</svg>
