<svg width="20" height="20" viewBox="0 0 20 20" fill="none" xmlns="http://www.w3.org/2000/svg">
<path d="M14.7857 12.6429V13.7143H16.1711L14.25 15.6354L13.0221 14.407C12.9218 14.3066 12.7858 14.2502 12.6439 14.25H12.6429C12.501 14.2502 12.365 14.3066 12.2646 14.407L9.42857 17.2425L10.1861 18L12.6434 15.5432L13.8712 16.7716C13.9717 16.872 14.1079 16.9285 14.25 16.9285C14.3921 16.9285 14.5283 16.872 14.6288 16.7716L16.9286 14.4718V15.8571H18V12.6429H14.7857ZM4.07143 18H3V15.3214C3 13.2536 4.68214 11.5714 6.75 11.5714H9.96429C11.0298 11.5714 12.0482 12.0268 12.7591 12.8213L11.9609 13.5359C11.7097 13.2549 11.4019 13.0302 11.0579 12.8763C10.7138 12.7224 10.3412 12.6429 9.96429 12.6429H6.75C5.27304 12.6429 4.07143 13.8445 4.07143 15.3214V18ZM8.35714 10.5C9.3517 10.5 10.3055 10.1049 11.0088 9.40165C11.7121 8.69839 12.1071 7.74456 12.1071 6.75C12.1071 5.75544 11.7121 4.80161 11.0088 4.09835C10.3055 3.39509 9.3517 3 8.35714 3C7.36258 3 6.40875 3.39509 5.70549 4.09835C5.00223 4.80161 4.60714 5.75544 4.60714 6.75C4.60714 7.74456 5.00223 8.69839 5.70549 9.40165C6.40875 10.1049 7.36258 10.5 8.35714 10.5ZM8.35714 4.07143C9.06754 4.07143 9.74885 4.35363 10.2512 4.85596C10.7535 5.35829 11.0357 6.0396 11.0357 6.75C11.0357 7.4604 10.7535 8.14171 10.2512 8.64404C9.74885 9.14637 9.06754 9.42857 8.35714 9.42857C7.64674 9.42857 6.96544 9.14637 6.46311 8.64404C5.96078 8.14171 5.67857 7.4604 5.67857 6.75C5.67857 6.0396 5.96078 5.35829 6.46311 4.85596C6.96544 4.35363 7.64674 4.07143 8.35714 4.07143Z" fill="#704264"/>
</svg>
