<svg width="20" height="20" viewBox="0 0 20 20" fill="none" xmlns="http://www.w3.org/2000/svg">
<path d="M7.19754 7.49491L9.42004 3.82658C9.49226 3.70935 9.57892 3.62741 9.68004 3.58074C9.78115 3.53408 9.88781 3.51074 10 3.51074C10.1123 3.51074 10.2189 3.53408 10.32 3.58074C10.4211 3.62741 10.5078 3.70935 10.58 3.82658L12.8025 7.49491C12.8753 7.60713 12.9117 7.72491 12.9117 7.84824C12.9117 7.97158 12.8823 8.08519 12.8234 8.18908C12.7645 8.29296 12.6856 8.37491 12.5867 8.43491C12.4878 8.49491 12.3717 8.52519 12.2384 8.52574H7.7617C7.62781 8.52574 7.51059 8.49491 7.41004 8.43324C7.30948 8.37158 7.2317 8.29019 7.1767 8.18908C7.11781 8.08908 7.08837 7.97796 7.08837 7.85574C7.08837 7.73352 7.12448 7.61324 7.1967 7.49491M14.5834 17.6924C13.7128 17.6924 12.977 17.3919 12.3759 16.7907C11.7748 16.1896 11.4742 15.4538 11.4742 14.5832C11.4742 13.7127 11.7748 12.9769 12.3759 12.3757C12.977 11.7746 13.7128 11.4741 14.5834 11.4741C15.4539 11.4741 16.1898 11.7746 16.7909 12.3757C17.392 12.9769 17.6925 13.7127 17.6925 14.5832C17.6925 15.4538 17.392 16.1896 16.7909 16.7907C16.1898 17.3919 15.4539 17.6924 14.5834 17.6924ZM3.1417 16.6016V12.5599C3.1417 12.3694 3.20587 12.2102 3.3342 12.0824C3.46365 11.9546 3.62365 11.8907 3.8142 11.8907H7.85587C8.04698 11.8907 8.20642 11.9552 8.3342 12.0841C8.46198 12.2135 8.52587 12.3738 8.52587 12.5649V16.6066C8.52587 16.7971 8.46115 16.9563 8.3317 17.0841C8.20281 17.2119 8.04281 17.2757 7.8517 17.2757H3.81004C3.61948 17.2757 3.46031 17.211 3.33254 17.0816C3.20476 16.9527 3.1417 16.7927 3.1417 16.6016ZM14.5825 16.8591C15.2198 16.8591 15.7586 16.6391 16.1992 16.1991C16.6398 15.7591 16.8598 15.2205 16.8592 14.5832C16.8586 13.946 16.6386 13.4074 16.1992 12.9674C15.7598 12.5274 15.2211 12.3074 14.5834 12.3074C13.9456 12.3074 13.407 12.5274 12.9675 12.9674C12.5281 13.4074 12.3081 13.946 12.3075 14.5832C12.307 15.2205 12.527 15.7591 12.9675 16.1991C13.4081 16.6391 13.9464 16.8591 14.5825 16.8591ZM3.9742 16.4424H7.69254V12.7241H3.9742V16.4424ZM8.02254 7.69241H11.9775L10 4.52241L8.02254 7.69241Z" fill="#704264"/>
<path d="M7.19754 7.49491L9.42004 3.82658C9.49226 3.70935 9.57892 3.62741 9.68004 3.58074C9.78115 3.53408 9.88781 3.51074 10 3.51074C10.1123 3.51074 10.2189 3.53408 10.32 3.58074C10.4211 3.62741 10.5078 3.70935 10.58 3.82658L12.8025 7.49491C12.8753 7.60713 12.9117 7.72491 12.9117 7.84824C12.9117 7.97158 12.8823 8.08519 12.8234 8.18908C12.7645 8.29296 12.6856 8.37491 12.5867 8.43491C12.4878 8.49491 12.3717 8.52519 12.2384 8.52574H7.7617C7.62781 8.52574 7.51059 8.49491 7.41004 8.43324C7.30948 8.37158 7.2317 8.29019 7.1767 8.18908C7.11781 8.08908 7.08837 7.97796 7.08837 7.85574C7.08837 7.73352 7.12448 7.61324 7.1967 7.49491M14.5834 17.6924C13.7128 17.6924 12.977 17.3919 12.3759 16.7907C11.7748 16.1896 11.4742 15.4538 11.4742 14.5832C11.4742 13.7127 11.7748 12.9769 12.3759 12.3757C12.977 11.7746 13.7128 11.4741 14.5834 11.4741C15.4539 11.4741 16.1898 11.7746 16.7909 12.3757C17.392 12.9769 17.6925 13.7127 17.6925 14.5832C17.6925 15.4538 17.392 16.1896 16.7909 16.7907C16.1898 17.3919 15.4539 17.6924 14.5834 17.6924ZM3.1417 16.6016V12.5599C3.1417 12.3694 3.20587 12.2102 3.3342 12.0824C3.46365 11.9546 3.62365 11.8907 3.8142 11.8907H7.85587C8.04698 11.8907 8.20642 11.9552 8.3342 12.0841C8.46198 12.2135 8.52587 12.3738 8.52587 12.5649V16.6066C8.52587 16.7971 8.46115 16.9563 8.3317 17.0841C8.20281 17.2119 8.04281 17.2757 7.8517 17.2757H3.81004C3.61948 17.2757 3.46031 17.211 3.33254 17.0816C3.20476 16.9527 3.1417 16.7927 3.1417 16.6016ZM14.5825 16.8591C15.2198 16.8591 15.7586 16.6391 16.1992 16.1991C16.6398 15.7591 16.8598 15.2205 16.8592 14.5832C16.8586 13.946 16.6386 13.4074 16.1992 12.9674C15.7598 12.5274 15.2211 12.3074 14.5834 12.3074C13.9456 12.3074 13.407 12.5274 12.9675 12.9674C12.5281 13.4074 12.3081 13.946 12.3075 14.5832C12.307 15.2205 12.527 15.7591 12.9675 16.1991C13.4081 16.6391 13.9464 16.8591 14.5825 16.8591ZM3.9742 16.4424H7.69254V12.7241H3.9742V16.4424ZM8.02254 7.69241H11.9775L10 4.52241L8.02254 7.69241Z" stroke="#704264" stroke-width="0.5"/>
</svg>
