<svg width="20" height="20" viewBox="0 0 20 20" fill="none" xmlns="http://www.w3.org/2000/svg">
<path d="M11.667 11.4585C13.6005 11.4585 18.125 11.4594 18.125 15.4175C18.1228 15.5824 18.0561 15.7403 17.9395 15.8569C17.8227 15.9736 17.665 16.0403 17.5 16.0425C17.335 16.0403 17.1773 15.9736 17.0605 15.8569C16.9439 15.7403 16.8772 15.5824 16.875 15.4175C16.875 13.7925 15.9917 12.7085 11.667 12.7085C7.34199 12.7085 6.45801 13.7925 6.45801 15.4175C6.45792 15.583 6.39242 15.7418 6.27539 15.8589C6.15818 15.9761 5.99877 16.0425 5.83301 16.0425C5.66736 16.0424 5.50874 15.976 5.3916 15.8589C5.27447 15.7417 5.20809 15.5831 5.20801 15.4175C5.20801 11.4591 9.73366 11.4585 11.667 11.4585ZM5.41699 11.0425C5.58256 11.0426 5.74128 11.1081 5.8584 11.2251C5.97561 11.3423 6.04199 11.5017 6.04199 11.6675C6.04191 11.8331 5.97553 11.9917 5.8584 12.1089C5.74126 12.226 5.58263 12.2924 5.41699 12.2925C3.45866 12.2925 3.125 12.9175 3.125 14.7925C3.12276 14.9574 3.05612 15.1153 2.93945 15.2319C2.82272 15.3486 2.66501 15.4153 2.5 15.4175C2.33499 15.4153 2.17728 15.3486 2.06055 15.2319C1.94388 15.1153 1.87724 14.9574 1.875 14.7925C1.875 12.5425 2.47533 11.0425 5.41699 11.0425ZM7.15039 5.88427C7.23517 5.88797 7.3181 5.90892 7.39453 5.94579C7.47115 5.98281 7.53999 6.03479 7.5957 6.09911C7.65138 6.16342 7.69307 6.23872 7.71875 6.31982C7.74439 6.40087 7.75362 6.48621 7.74512 6.57079C7.73659 6.65546 7.71029 6.73763 7.66895 6.81201C7.62765 6.8862 7.57213 6.95157 7.50488 7.00341C7.43747 7.05534 7.35981 7.09277 7.27734 7.11376C7.19501 7.13473 7.10931 7.13877 7.02539 7.12548C6.86276 7.10927 6.69802 7.12566 6.54199 7.17431C6.38593 7.22299 6.24081 7.30286 6.11621 7.40869C5.98982 7.51068 5.88482 7.63689 5.80762 7.77978C5.73044 7.92271 5.68299 8.08005 5.66699 8.24169C5.64978 8.40536 5.66462 8.57138 5.71191 8.729C5.75933 8.88678 5.83768 9.03442 5.94238 9.16161C6.04707 9.28879 6.17657 9.39336 6.32227 9.47021C6.46799 9.54707 6.62789 9.5943 6.79199 9.60888C7.06313 9.632 7.33439 9.56748 7.56641 9.42529C7.70782 9.33801 7.87832 9.31087 8.04004 9.34911C8.20164 9.38737 8.34139 9.48815 8.42871 9.62939C8.51598 9.77078 8.54408 9.94133 8.50586 10.103C8.46757 10.2648 8.36606 10.4044 8.22461 10.4917C7.83819 10.7381 7.3918 10.8746 6.93359 10.8843H6.66699C6.00402 10.8202 5.39324 10.495 4.96973 9.98095C4.54621 9.46679 4.34411 8.80512 4.4082 8.14208C4.47231 7.47907 4.79738 6.86832 5.31152 6.44482C5.82565 6.02142 6.48744 5.82019 7.15039 5.88427ZM11.0566 4.01904C11.6628 3.89847 12.2913 3.96031 12.8623 4.19677C13.4333 4.4333 13.9213 4.83423 14.2646 5.34814C14.6079 5.86192 14.7919 6.4656 14.792 7.08349C14.792 7.91229 14.462 8.7074 13.876 9.29345C13.29 9.87932 12.4956 10.2084 11.667 10.2085C11.049 10.2085 10.4445 10.0255 9.93066 9.68212C9.41676 9.33874 9.01582 8.8508 8.7793 8.27978C8.54278 7.70877 8.48099 7.0803 8.60156 6.47411C8.72213 5.86801 9.02008 5.31152 9.45703 4.87451C9.89398 4.43756 10.4506 4.13967 11.0566 4.01904ZM11.667 5.20849C11.2962 5.20849 10.9333 5.31887 10.625 5.5249C10.3167 5.73092 10.0765 6.02409 9.93457 6.36669C9.79275 6.70923 9.7558 7.08609 9.82812 7.4497C9.90049 7.81335 10.0786 8.14748 10.3408 8.40966C10.603 8.67184 10.9371 8.84999 11.3008 8.92236C11.6644 8.99468 12.0413 8.95773 12.3838 8.81591C12.7264 8.674 13.0196 8.43381 13.2256 8.12548C13.4316 7.81714 13.542 7.45433 13.542 7.08349C13.5419 6.58633 13.3437 6.10985 12.9922 5.75829C12.6406 5.40674 12.1642 5.20858 11.667 5.20849Z" fill="#704264"/>
</svg>
